# xmcd
#
# Track frame offsets: 
#        150
#        14995
#        32745
#        64317
#        80412
#        100660
#        124252
#        144170
#        158580
#        172427
#        200920
#        225961
#        254881
#
# Disc length: 3750 seconds
#
# Revision: 0
# Processed by: cddbd v1.5.1PL0 Copyright (c) Steve Scherf et al.
# Submitted via: ExactAudioCopy v0.95a5
#
DISCID=bc0ea40d
DTITLE=Buddy Guy - Slippin' In
DYEAR=1994
DGENRE=Blues
TTITLE0=I Smell Trouble
TTITLE1=Please Don't Drive Me Away
TTITLE2=7-11
TTITLE3=Shame, Shame, Shame
TTITLE4=Love Her With a Feeling
TTITLE5=Little Dab-A-Doo
TTITLE6=Someone Else Is Steppin In
TTITLE7=Trouble Blues
TTITLE8=Man of Many Words
TTITLE9=Don't Tell Me About the Blues
TTITLE10=Cities Need Help
TTITLE11=First Time I Met The Blues
TTITLE12=Country Girl (With Junior Wells)
EXTD=
EXTT0=
EXTT1=
EXTT2=
EXTT3=
EXTT4=
EXTT5=
EXTT6=
EXTT7=
EXTT8=
EXTT9=
EXTT10=
EXTT11=
EXTT12=
PLAYORDER=
